<?xml version="1.0" encoding="UTF-8" standalone="no"?>
<!-- Created with Inkscape (http://www.inkscape.org/) -->

<svg
   width="79.375mm"
   height="17.991667mm"
   viewBox="0 0 79.375 17.991667"
   version="1.1"
   id="svg1"
   inkscape:version="1.3 (0e150ed6c4, 2023-07-21)"
   sodipodi:docname="adriel-filipe-logo.svg"
   xmlns:inkscape="http://www.inkscape.org/namespaces/inkscape"
   xmlns:sodipodi="http://sodipodi.sourceforge.net/DTD/sodipodi-0.dtd"
   xmlns="http://www.w3.org/2000/svg"
   xmlns:svg="http://www.w3.org/2000/svg">
  <sodipodi:namedview
     id="namedview1"
     pagecolor="#ffffff"
     bordercolor="#000000"
     borderopacity="0.25"
     inkscape:showpageshadow="2"
     inkscape:pageopacity="0.0"
     inkscape:pagecheckerboard="0"
     inkscape:deskcolor="#d1d1d1"
     inkscape:document-units="mm"
     inkscape:zoom="3.6203868"
     inkscape:cx="40.050969"
     inkscape:cy="44.608493"
     inkscape:window-width="2560"
     inkscape:window-height="1017"
     inkscape:window-x="1912"
     inkscape:window-y="-8"
     inkscape:window-maximized="1"
     inkscape:current-layer="layer1"
     showguides="true" />
  <defs
     id="defs1" />
  <g
     inkscape:label="Camada 1"
     inkscape:groupmode="layer"
     id="layer1"
     transform="translate(2435.99,-10570.596)">
    <path
       id="rect31"
       style="fill:none;stroke-width:0.390422;stroke-linecap:round;stroke-linejoin:round;paint-order:stroke fill markers"
       d="m -2434.1091,10570.597 h 75.6132 c 1.042,0 1.8809,0.25 1.8809,0.562 v 16.867 c 0,0.312 -0.8389,0.562 -1.8809,0.562 h -75.6132 c -1.042,0 -1.8809,-0.25 -1.8809,-0.562 v -16.867 c 0,-0.312 0.8389,-0.562 1.8809,-0.562 z" />
    <g
       id="g2"
       transform="translate(-0.80345055,-1.663)">
      <path
         style="fill:#ff6600;fill-opacity:1;stroke-width:0.37404;stroke-linecap:round;stroke-linejoin:round;paint-order:stroke fill markers"
         d="m -2428.9835,10581.497 a 3.5713835,3.5713835 0 0 1 3.5714,3.572 3.5713835,3.5713835 0 0 1 -3.5714,3.572 3.5713835,3.5713835 0 0 1 -3.5713,-3.572 3.5713835,3.5713835 0 0 1 3.5713,-3.572 z"
         id="path28-4-5-1-5-0-2" />
      <path
         id="rect1-6-7-8-2-6-9-1-7-8-4-8-2-88-6-8-3-1-4-9-8-7-0"
         style="fill:#ff6600;fill-opacity:1;stroke-width:0.223911;stroke-linecap:round;stroke-linejoin:round;paint-order:stroke fill markers"
         d="m -2432.5548,10573.87 v 2.59 0 2.514 h 9.7329 v 9.614 h 2.5903 2.5901 v -14.718 0 0 z"
         inkscape:export-filename="../Novo Site/images/logo.png"
         inkscape:export-xdpi="96"
         inkscape:export-ydpi="96" />
      <g
         id="g1"
         transform="matrix(1.2905998,0,0,1.2905998,706.80559,-3073.8662)">
        <path
           style="font-weight:900;font-size:6.1955px;font-family:Inter;-inkscape-font-specification:'Inter Heavy';letter-spacing:0px;word-spacing:0px;fill:#ff6600;stroke-width:0.896592;stroke-linecap:round;stroke-linejoin:round;paint-order:stroke fill markers"
           d="m -2417.6086,10579.523 h -1.0413 l 1.1732,-3.555 h 1.3189 l 1.1733,3.555 h -1.0413 l -0.2048,-0.68 h -1.1732 z m 0.4235,-1.403 h 0.7358 l -0.354,-1.173 h -0.028 z m 3.3113,1.437 q -0.2846,0 -0.5241,-0.149 -0.2378,-0.149 -0.3819,-0.452 -0.1423,-0.304 -0.1423,-0.766 0,-0.482 0.1493,-0.784 0.151,-0.303 0.3888,-0.443 0.2395,-0.14 0.5033,-0.14 0.2967,0 0.4842,0.149 0.1874,0.147 0.2655,0.35 h 0.014 v -1.354 h 0.958 v 3.555 h -0.9511 v -0.437 h -0.021 q -0.083,0.202 -0.2724,0.338 -0.1892,0.133 -0.4703,0.133 z m 0.354,-0.736 q 0.1979,0 0.3107,-0.169 0.1128,-0.171 0.1128,-0.462 0,-0.297 -0.1128,-0.463 -0.1128,-0.168 -0.3107,-0.168 -0.1978,0 -0.3071,0.168 -0.1094,0.166 -0.1094,0.463 0,0.297 0.1094,0.465 0.1093,0.166 0.3071,0.166 z m 1.8327,0.702 v -2.666 h 0.9303 v 0.507 h 0.028 q 0.073,-0.281 0.2308,-0.411 0.1597,-0.13 0.3731,-0.13 0.1198,0 0.243,0.04 v 0.817 q -0.071,-0.02 -0.1753,-0.04 -0.1041,0 -0.1787,0 -0.2117,0 -0.3523,0.139 -0.1406,0.139 -0.1406,0.367 v 1.389 z m 2.1173,0 v -2.666 h 0.9581 v 2.666 z m 0.4791,-2.943 q -0.1944,0 -0.3333,-0.129 -0.1388,-0.129 -0.1388,-0.309 0,-0.18 0.1388,-0.309 0.1389,-0.128 0.3333,-0.128 0.1961,0 0.3332,0.128 0.1388,0.129 0.1388,0.309 0,0.18 -0.1388,0.309 -0.1371,0.129 -0.3332,0.129 z m 2.2422,2.992 q -0.6403,0 -1.0083,-0.363 -0.3662,-0.365 -0.3662,-1.012 0,-0.413 0.1666,-0.722 0.1666,-0.309 0.4704,-0.48 0.3037,-0.172 0.7167,-0.172 0.4026,0 0.6994,0.164 0.2986,0.165 0.4617,0.472 0.1649,0.305 0.1649,0.731 v 0.222 h -1.7355 v 0.04 q 0,0.193 0.118,0.32 0.1197,0.125 0.3332,0.125 0.1475,0 0.2568,-0.06 0.1111,-0.06 0.1527,-0.176 h 0.8748 q -0.068,0.417 -0.4096,0.663 -0.3402,0.247 -0.8956,0.247 z m -0.4303,-1.688 h 0.8538 q 0,-0.172 -0.125,-0.279 -0.1197,-0.11 -0.2985,-0.11 -0.1752,0 -0.3019,0.109 -0.125,0.107 -0.1284,0.28 z m 3.0822,-1.916 v 3.555 h -0.958 v -3.555 z"
           id="text1-3-5-4-1-7-8-7-5-9-7-0-33-6-2-7-7-7-2-4-2-2"
           aria-label="Adriel" />
        <path
           style="font-weight:bold;font-size:6.1955px;font-family:Inter;-inkscape-font-specification:'Inter Bold';letter-spacing:-0.185863px;word-spacing:0px;fill:#ff6600;stroke-width:0.896592;stroke-linecap:round;stroke-linejoin:round;paint-order:stroke fill markers"
           d="m -2402.8796,10579.572 v -3.555 h 2.3534 v 0.619 h -1.6019 v 0.848 h 1.4457 v 0.619 h -1.4457 v 1.469 z m 2.6979,0 v -2.667 h 0.7393 v 2.667 z m 0.3713,-3.01 q -0.1631,0 -0.2811,-0.109 -0.118,-0.112 -0.118,-0.266 0,-0.154 0.118,-0.264 0.118,-0.109 0.2811,-0.109 0.165,0 0.283,0.109 0.118,0.11 0.118,0.264 0,0.154 -0.118,0.266 -0.118,0.109 -0.283,0.109 z m 1.5508,-0.545 v 3.555 h -0.7394 v -3.555 z m 0.4435,3.555 v -2.667 h 0.7393 v 2.667 z m 0.3714,-3.01 q -0.1632,0 -0.2812,-0.109 -0.118,-0.112 -0.118,-0.266 0,-0.154 0.118,-0.264 0.118,-0.109 0.2812,-0.109 0.1648,0 0.2828,0.109 0.118,0.11 0.118,0.264 0,0.154 -0.118,0.266 -0.118,0.109 -0.2828,0.109 z m 0.8113,4.009 v -3.666 h 0.7289 v 0.448 h 0.033 q 0.05,-0.109 0.1423,-0.22 0.092,-0.111 0.2429,-0.186 0.151,-0.08 0.3732,-0.08 0.2933,0 0.538,0.153 0.2447,0.151 0.3922,0.457 0.1493,0.304 0.1493,0.761 0,0.447 -0.1441,0.754 -0.144,0.305 -0.3887,0.463 -0.2447,0.157 -0.5484,0.157 -0.2153,0 -0.3663,-0.07 -0.1492,-0.07 -0.2447,-0.179 -0.094,-0.109 -0.1457,-0.22 h -0.023 v 1.427 z m 0.7237,-2.332 q 0,0.355 0.1458,0.572 0.1475,0.216 0.4148,0.216 0.2725,0 0.4165,-0.219 0.1441,-0.221 0.1441,-0.569 0,-0.348 -0.1441,-0.563 -0.1423,-0.217 -0.4165,-0.217 -0.269,0 -0.4148,0.212 -0.1458,0.21 -0.1458,0.568 z m 3.4355,1.385 q -0.4096,0 -0.7064,-0.168 -0.2967,-0.168 -0.4564,-0.474 -0.1596,-0.31 -0.1596,-0.732 0,-0.411 0.1596,-0.721 0.1597,-0.311 0.4495,-0.485 0.2915,-0.173 0.6838,-0.173 0.3523,0 0.6352,0.149 0.2846,0.15 0.4512,0.452 0.1666,0.3 0.1666,0.752 v 0.204 h -1.8153 v 0 q 0,0.298 0.1631,0.47 0.1631,0.172 0.4409,0.172 0.1857,0 0.321,-0.08 0.1354,-0.08 0.1909,-0.231 l 0.6838,0.05 q -0.078,0.371 -0.3957,0.593 -0.3176,0.223 -0.8122,0.223 z m -0.5918,-1.654 h 1.1194 q 0,-0.238 -0.1527,-0.393 -0.151,-0.154 -0.3922,-0.154 -0.2465,0 -0.4045,0.159 -0.1579,0.16 -0.17,0.388 z"
           id="text1-9-4-7-5-2-1-6-3-4-7-5-4-60-4-8-0-6-9-7-4-9-4"
           aria-label="Filipe" />
        <path
           d="m -2418.6499,10584.42 v -3.849 h 0.8005 v 1.447 h 0.024 q 0.053,-0.116 0.1522,-0.236 0.1014,-0.123 0.263,-0.203 0.1635,-0.08 0.4059,-0.08 0.3157,0 0.5826,0.165 0.2668,0.164 0.4265,0.495 0.1598,0.328 0.1598,0.824 0,0.483 -0.156,0.816 -0.1541,0.331 -0.4209,0.502 -0.265,0.169 -0.5938,0.169 -0.2331,0 -0.3965,-0.08 -0.1616,-0.08 -0.265,-0.194 -0.1033,-0.118 -0.1578,-0.238 h -0.036 v 0.462 z m 0.7836,-1.443 q 0,0.257 0.071,0.449 0.071,0.192 0.2067,0.299 0.1353,0.105 0.3289,0.105 0.1954,0 0.3307,-0.107 0.1353,-0.109 0.2048,-0.301 0.071,-0.193 0.071,-0.445 0,-0.25 -0.07,-0.44 -0.07,-0.19 -0.2048,-0.297 -0.1353,-0.107 -0.3326,-0.107 -0.1955,0 -0.3308,0.103 -0.1334,0.104 -0.2048,0.294 -0.071,0.189 -0.071,0.447 z m 3.3637,-2.406 v 3.849 h -0.8005 v -3.849 z m 1.943,3.905 q -0.4378,0 -0.7573,-0.186 -0.3176,-0.188 -0.4904,-0.522 -0.1729,-0.337 -0.1729,-0.78 0,-0.447 0.1729,-0.782 0.1728,-0.336 0.4904,-0.522 0.3195,-0.188 0.7573,-0.188 0.4379,0 0.7554,0.188 0.3195,0.186 0.4924,0.522 0.1728,0.335 0.1728,0.782 0,0.443 -0.1728,0.78 -0.1729,0.334 -0.4924,0.522 -0.3175,0.186 -0.7554,0.186 z m 0,-0.62 q 0.1992,0 0.3326,-0.113 0.1334,-0.114 0.201,-0.312 0.07,-0.197 0.07,-0.449 0,-0.251 -0.07,-0.449 -0.068,-0.197 -0.201,-0.312 -0.1334,-0.114 -0.3326,-0.114 -0.2011,0 -0.3383,0.114 -0.1353,0.115 -0.2048,0.312 -0.068,0.198 -0.068,0.449 0,0.252 0.068,0.449 0.07,0.198 0.2048,0.312 0.1372,0.113 0.3383,0.113 z m 3.2396,1.706 q -0.389,0 -0.6671,-0.107 -0.2762,-0.105 -0.4397,-0.287 -0.1635,-0.182 -0.2123,-0.41 l 0.7403,-0.1 q 0.034,0.09 0.1071,0.161 0.073,0.08 0.1936,0.12 0.1221,0.05 0.2969,0.05 0.2612,0 0.4303,-0.127 0.171,-0.126 0.171,-0.423 v -0.528 h -0.034 q -0.053,0.12 -0.1578,0.227 -0.1053,0.107 -0.2706,0.175 -0.1654,0.07 -0.3947,0.07 -0.3251,0 -0.5919,-0.151 -0.2649,-0.152 -0.4228,-0.464 -0.156,-0.314 -0.156,-0.793 0,-0.49 0.1598,-0.819 0.1597,-0.329 0.4246,-0.493 0.2669,-0.163 0.5845,-0.163 0.2424,0 0.4059,0.08 0.1634,0.08 0.263,0.203 0.1015,0.12 0.156,0.236 h 0.03 v -0.484 h 0.7949 v 2.914 q 0,0.368 -0.1804,0.616 -0.1804,0.249 -0.4999,0.373 -0.3176,0.125 -0.731,0.125 z m 0.017,-1.785 q 0.1936,0 0.327,-0.1 0.1353,-0.1 0.2067,-0.278 0.073,-0.182 0.073,-0.436 0,-0.253 -0.071,-0.439 -0.071,-0.188 -0.2067,-0.292 -0.1353,-0.103 -0.3289,-0.103 -0.1973,0 -0.3326,0.107 -0.1353,0.105 -0.2048,0.293 -0.07,0.188 -0.07,0.434 0,0.25 0.07,0.433 0.071,0.18 0.2048,0.28 0.1353,0.1 0.3326,0.1 z"
           id="text1"
           style="font-weight:bold;font-size:5.29167px;font-family:Inter;-inkscape-font-specification:'Inter Bold';letter-spacing:0px;word-spacing:0px;fill:#ff6600;stroke-width:0.688446;stroke-linecap:round;stroke-linejoin:round;paint-order:stroke fill markers"
           aria-label="blog" />
      </g>
    </g>
  </g>
</svg>
